<svg version="1.1" xmlns="http://www.w3.org/2000/svg" xmlns:xlink="http://www.w3.org/1999/xlink" width="20.78571" height="20.78571" viewBox="0,0,20.78571,20.78571"><g transform="translate(-229.60714,-169.60714)"><g data-paper-data="{&quot;isPaintingLayer&quot;:true}" fill-rule="nonzero" stroke-linecap="butt" stroke-linejoin="miter" stroke-miterlimit="10" stroke-dasharray="" stroke-dashoffset="0" style="mix-blend-mode: normal"><path d="M234.71429,180c0,-2.91922 2.36649,-5.28571 5.28571,-5.28571c2.91922,0 5.28571,2.36649 5.28571,5.28571c0,2.91922 -2.36649,5.28571 -5.28571,5.28571c-2.91922,0 -5.28571,-2.36649 -5.28571,-5.28571z" fill="none" stroke-opacity="0.2" stroke="#cc00ff" stroke-width="2"/><path d="M234.71429,180c0,-2.91922 2.36649,-5.28571 5.28571,-5.28571c2.91922,0 5.28571,2.36649 5.28571,5.28571c0,2.91922 -2.36649,5.28571 -5.28571,5.28571c-2.91922,0 -5.28571,-2.36649 -5.28571,-5.28571z" fill="none" stroke-opacity="0.50196" stroke="#cc00ff" stroke-width="1.5"/><path d="M234.71429,180c0,-2.91922 2.36649,-5.28571 5.28571,-5.28571c2.91922,0 5.28571,2.36649 5.28571,5.28571c0,2.91922 -2.36649,5.28571 -5.28571,5.28571c-2.91922,0 -5.28571,-2.36649 -5.28571,-5.28571z" fill="#ffffff" stroke="#cc00ff" stroke-width="0.5"/><path d="M234.71429,180c0,-2.91922 2.36649,-5.28571 5.28571,-5.28571c2.91922,0 5.28571,2.36649 5.28571,5.28571c0,2.91922 -2.36649,5.28571 -5.28571,5.28571c-2.91922,0 -5.28571,-2.36649 -5.28571,-5.28571z" fill="none" stroke-opacity="0.70196" stroke="#cc00ff" stroke-width="1"/><path d="M231.10714,180c0,-4.91139 3.98146,-8.89285 8.89285,-8.89285c4.91139,0 8.89286,3.98146 8.89286,8.89285c0,4.91139 -3.98147,8.89285 -8.89286,8.89285c-4.91139,0 -8.89285,-3.98146 -8.89285,-8.89285z" fill="none" stroke-opacity="0.50196" stroke="#cc00ff" stroke-width="2"/><path d="M231.10714,180c0,-4.91139 3.98146,-8.89285 8.89285,-8.89285c4.91139,0 8.89286,3.98146 8.89286,8.89285c0,4.91139 -3.98147,8.89285 -8.89286,8.89285c-4.91139,0 -8.89285,-3.98146 -8.89285,-8.89285z" fill="none" stroke-opacity="0.70196" stroke="#cc00ff" stroke-width="1"/><path d="M231.10714,180c0,-4.91139 3.98147,-8.89286 8.89286,-8.89286c4.91139,0 8.89286,3.98147 8.89286,8.89286c0,4.91139 -3.98147,8.89286 -8.89286,8.89286c-4.91139,0 -8.89286,-3.98147 -8.89286,-8.89286z" fill="none" stroke="#cc00ff" stroke-width="0.5"/><path d="M231.10715,180c0,-4.91139 3.98146,-8.89285 8.89285,-8.89285c4.91139,0 8.89285,3.98146 8.89285,8.89285c0,4.91139 -3.98146,8.89285 -8.89285,8.89285c-4.91139,0 -8.89285,-3.98146 -8.89285,-8.89285z" fill="none" stroke-opacity="0.30196" stroke="#cc00ff" stroke-width="3"/></g></g></svg>