<svg version="1.1" xmlns="http://www.w3.org/2000/svg" xmlns:xlink="http://www.w3.org/1999/xlink" width="30.1217" height="9.45217" viewBox="0,0,30.1217,9.45217"><g transform="translate(-210.98139,-175.27392)"><g data-paper-data="{&quot;isPaintingLayer&quot;:true}" fill-rule="nonzero" stroke-linecap="butt" stroke-linejoin="miter" stroke-miterlimit="10" stroke-dasharray="" stroke-dashoffset="0" style="mix-blend-mode: normal"><path d="M211.03922,184.63341c0,0 -0.05836,-0.1282 -0.05783,-0.45626c0.00249,-1.54675 0.00974,-6.0344 0.01099,-6.81208c0.00036,-0.22506 0.07285,-0.31867 0.07285,-0.31867c0,0 0.03629,-0.09921 0.2296,-0.09868c1.47957,0.0041 7.92993,0.02196 8.76665,0.02428c0.1755,0.00048 0.2603,0.08199 0.2603,0.08199c0,0 0.05155,0.07482 0.05112,0.34159c-0.00234,1.44549 -0.00992,6.14531 -0.01118,6.92944c-0.00034,0.21718 -0.04189,0.34764 -0.04189,0.34764c0,0 -0.09536,0.05392 -0.27087,0.05342c-0.83544,-0.00232 -7.26717,-0.02012 -8.75976,-0.02426c-0.19763,-0.00054 -0.24999,-0.0684 -0.24999,-0.0684z" fill="#ffffff" stroke="none" stroke-width="3.5"/><path d="M211.58991,184.10541c0,0 -0.05142,-0.10019 -0.05097,-0.38353c0.0022,-1.33594 0.00859,-5.21194 0.00968,-5.88363c0.00031,-0.19438 0.0642,-0.27524 0.0642,-0.27524c0,0 0.03196,-0.08568 0.20232,-0.08522c1.3039,0.00354 6.98836,0.01896 7.72574,0.02097c0.15467,0.00042 0.2294,0.07082 0.2294,0.07082c0,0 0.04543,0.06461 0.04505,0.29503c-0.00206,1.24847 -0.00874,5.30774 -0.00986,5.985c-0.00031,0.18758 -0.03692,0.30026 -0.03692,0.30026c0,0 -0.08403,0.04656 -0.2387,0.04614c-0.73625,-0.00199 -6.4043,-0.01737 -7.71966,-0.02095c-0.17415,-0.00048 -0.22031,-0.05908 -0.22031,-0.05908z" fill="none" stroke="#cc00ff" stroke-width="0.375"/><path d="M212.71655,178.61471h5.92117v4.44438h-5.92117z" fill="none" stroke="#cc00ff" stroke-width="0.75"/><path d="M218.1734,183.79651c0,0 -0.05836,-0.1282 -0.05783,-0.45626c0.00249,-1.54675 0.00974,-6.0344 0.01099,-6.81208c0.00036,-0.22506 0.07285,-0.31867 0.07285,-0.31867c0,0 0.03629,-0.09921 0.2296,-0.09868c1.47957,0.0041 7.92993,0.02196 8.76665,0.02428c0.1755,0.00048 0.2603,0.08199 0.2603,0.08199c0,0 0.05155,0.07482 0.05112,0.34159c-0.00234,1.44549 -0.00992,6.14531 -0.01118,6.92944c-0.00034,0.21718 -0.04189,0.34764 -0.04189,0.34764c0,0 -0.09536,0.05392 -0.27087,0.05342c-0.83544,-0.00232 -7.26717,-0.02012 -8.75976,-0.02426c-0.19763,-0.00054 -0.24999,-0.0684 -0.24999,-0.0684z" fill="#ffffff" stroke="none" stroke-width="3.5"/><path d="M218.72409,183.26851c0,0 -0.05142,-0.10019 -0.05097,-0.38353c0.0022,-1.33594 0.00859,-5.21194 0.00968,-5.88363c0.00031,-0.19438 0.0642,-0.27524 0.0642,-0.27524c0,0 0.03196,-0.08568 0.20232,-0.08522c1.3039,0.00354 6.98836,0.01896 7.72574,0.02097c0.15467,0.00042 0.2294,0.07082 0.2294,0.07082c0,0 0.04543,0.06461 0.04505,0.29503c-0.00206,1.24847 -0.00874,5.30774 -0.00986,5.985c-0.00031,0.18758 -0.03692,0.30026 -0.03692,0.30026c0,0 -0.08403,0.04656 -0.2387,0.04614c-0.73625,-0.00199 -6.4043,-0.01737 -7.71966,-0.02095c-0.17415,-0.00048 -0.22031,-0.05908 -0.22031,-0.05908z" fill="none" stroke="#cc00ff" stroke-width="0.375"/><path d="M219.85073,177.77781h5.92117v4.44438h-5.92117z" fill="none" stroke="#cc00ff" stroke-width="0.75"/><path d="M225.00785,182.95961c0,0 -0.05836,-0.1282 -0.05783,-0.45626c0.00249,-1.54675 0.00974,-6.0344 0.01099,-6.81208c0.00036,-0.22506 0.07285,-0.31867 0.07285,-0.31867c0,0 0.03629,-0.09921 0.2296,-0.09868c1.47957,0.0041 7.92993,0.02196 8.76665,0.02428c0.1755,0.00048 0.2603,0.08199 0.2603,0.08199c0,0 0.05155,0.07482 0.05112,0.34159c-0.00234,1.44549 -0.00992,6.14531 -0.01118,6.92944c-0.00034,0.21718 -0.04189,0.34764 -0.04189,0.34764c0,0 -0.09536,0.05392 -0.27087,0.05342c-0.83544,-0.00232 -7.26717,-0.02012 -8.75976,-0.02426c-0.19763,-0.00054 -0.24999,-0.0684 -0.24999,-0.0684z" fill="#ffffff" stroke="none" stroke-width="3.5"/><path d="M225.55854,182.43161c0,0 -0.05142,-0.10019 -0.05097,-0.38353c0.0022,-1.33594 0.00859,-5.21194 0.00968,-5.88363c0.00031,-0.19438 0.0642,-0.27524 0.0642,-0.27524c0,0 0.03196,-0.08568 0.20232,-0.08522c1.3039,0.00354 6.98836,0.01896 7.72574,0.02097c0.15467,0.00042 0.2294,0.07082 0.2294,0.07082c0,0 0.04543,0.06461 0.04505,0.29503c-0.00206,1.24847 -0.00874,5.30774 -0.00986,5.985c-0.00031,0.18758 -0.03692,0.30026 -0.03692,0.30026c0,0 -0.08403,0.04656 -0.2387,0.04614c-0.73625,-0.00199 -6.4043,-0.01737 -7.71966,-0.02095c-0.17415,-0.00048 -0.22031,-0.05908 -0.22031,-0.05908z" fill="none" stroke="#cc00ff" stroke-width="0.375"/><path d="M226.68518,176.94091h5.92117v4.44438h-5.92117z" fill="none" stroke="#cc00ff" stroke-width="0.75"/><path d="" fill="#cc00ff" stroke="none" stroke-width="0.5"/><path d="M231.76941,183.79651c0,0 -0.05836,-0.1282 -0.05783,-0.45626c0.00249,-1.54675 0.00974,-6.0344 0.01099,-6.81208c0.00036,-0.22506 0.07285,-0.31867 0.07285,-0.31867c0,0 0.03629,-0.09921 0.2296,-0.09868c1.47957,0.0041 7.92993,0.02196 8.76665,0.02428c0.1755,0.00048 0.2603,0.08199 0.2603,0.08199c0,0 0.05155,0.07482 0.05112,0.34159c-0.00234,1.44549 -0.00992,6.14531 -0.01118,6.92944c-0.00034,0.21718 -0.04189,0.34764 -0.04189,0.34764c0,0 -0.09536,0.05392 -0.27087,0.05342c-0.83544,-0.00232 -7.26717,-0.02012 -8.75976,-0.02426c-0.19763,-0.00054 -0.24999,-0.0684 -0.24999,-0.0684z" fill="#ffffff" stroke="none" stroke-width="3.5"/><path d="M232.3201,183.26851c0,0 -0.05142,-0.10019 -0.05097,-0.38353c0.0022,-1.33594 0.00859,-5.21194 0.00968,-5.88363c0.00031,-0.19438 0.0642,-0.27524 0.0642,-0.27524c0,0 0.03196,-0.08568 0.20232,-0.08522c1.3039,0.00354 6.98836,0.01896 7.72574,0.02097c0.15467,0.00042 0.2294,0.07082 0.2294,0.07082c0,0 0.04543,0.06461 0.04505,0.29503c-0.00206,1.24847 -0.00874,5.30774 -0.00986,5.985c-0.00031,0.18758 -0.03692,0.30026 -0.03692,0.30026c0,0 -0.08403,0.04656 -0.2387,0.04614c-0.73625,-0.00199 -6.4043,-0.01737 -7.71966,-0.02095c-0.17415,-0.00048 -0.22031,-0.05908 -0.22031,-0.05908z" fill="none" stroke="#cc00ff" stroke-width="0.375"/><path d="M233.44674,177.77781h5.92117v4.44438h-5.92117z" fill="none" stroke="#cc00ff" stroke-width="0.75"/></g></g></svg>