<svg version="1.1" xmlns="http://www.w3.org/2000/svg" xmlns:xlink="http://www.w3.org/1999/xlink" width="36.22424" height="36.22424" viewBox="0,0,36.22424,36.22424"><defs><radialGradient cx="240" cy="180" r="18.11212" gradientUnits="userSpaceOnUse" id="color-1"><stop offset="0" stop-color="#cc00ff"/><stop offset="1" stop-color="#000000" stop-opacity="0.59608"/></radialGradient><radialGradient cx="240" cy="180" r="14.89847" gradientUnits="userSpaceOnUse" id="color-2"><stop offset="0" stop-color="#cc00ff"/><stop offset="1" stop-color="#000000" stop-opacity="0.70196"/></radialGradient></defs><g transform="translate(-221.88788,-161.88788)"><g data-paper-data="{&quot;isPaintingLayer&quot;:true}" fill-rule="nonzero" stroke="none" stroke-width="0.5" stroke-linecap="butt" stroke-linejoin="miter" stroke-miterlimit="10" stroke-dasharray="" stroke-dashoffset="0" style="mix-blend-mode: normal"><path d="M221.88788,180c0,-10.00305 8.10907,-18.11212 18.11212,-18.11212c10.00305,0 18.11212,8.10907 18.11212,18.11212c0,10.00305 -8.10907,18.11212 -18.11212,18.11212c-10.00305,0 -18.11212,-8.10907 -18.11212,-18.11212z" fill="url(#color-1)"/><path d="M225.10153,180c0,-8.2282 6.67027,-14.89847 14.89847,-14.89847c8.2282,0 14.89847,6.67027 14.89847,14.89847c0,8.2282 -6.67027,14.89847 -14.89847,14.89847c-8.2282,0 -14.89847,-6.67027 -14.89847,-14.89847z" fill="url(#color-2)"/></g></g></svg>