<svg version="1.1" xmlns="http://www.w3.org/2000/svg" xmlns:xlink="http://www.w3.org/1999/xlink" width="19.77049" height="18.55008" viewBox="0,0,19.77049,18.55008"><defs><radialGradient cx="240.09152" cy="180.81156" r="9.88524" gradientUnits="userSpaceOnUse" id="color-1"><stop offset="0" stop-color="#ffffff"/><stop offset="1" stop-color="#ffffff"/></radialGradient></defs><g transform="translate(-230.11476,-170.72496)"><g data-paper-data="{&quot;isPaintingLayer&quot;:true}" fill-rule="nonzero" stroke="none" stroke-linejoin="miter" stroke-miterlimit="10" stroke-dasharray="" stroke-dashoffset="0" style="mix-blend-mode: normal"><path d="M230.11476,178.04736c0,0 6.78058,-2.18719 10.0983,-2.23839c3.27181,-0.05049 9.67219,1.93329 9.67219,1.93329c0,0 -3.44822,5.53125 -5.94035,7.32218c-2.81731,2.0246 -10.10791,4.2106 -10.10791,4.2106c0,0 0.11475,-7.3349 1.20723,-10.55931c0.99303,-2.93088 5.07784,-7.99077 5.07784,-7.99077c0,0 3.65606,5.26935 4.65536,8.26725c1.03355,3.10065 1.44665,10.03876 1.44665,10.03876c0,0 -6.79939,-1.6359 -9.49396,-3.47311c-2.67506,-1.8239 -6.61533,-7.5105 -6.61533,-7.5105z" fill="url(#color-1)" stroke-width="0" stroke-linecap="round"/><path d="M230.77375,178.17753c0,0 6.32855,-2.04138 9.42509,-2.08916c3.05369,-0.04712 9.02739,1.80441 9.02739,1.80441c0,0 -3.21833,5.16251 -5.54434,6.83404c-2.62949,1.88963 -9.43406,3.92989 -9.43406,3.92989c0,0 0.10709,-6.84591 1.12675,-9.85537c0.92683,-2.7355 4.73932,-7.45806 4.73932,-7.45806c0,0 3.41233,4.91806 4.34501,7.7161c0.96465,2.89394 1.35021,9.36952 1.35021,9.36952c0,0 -6.34611,-1.52685 -8.86104,-3.24158c-2.49672,-1.70231 -6.17432,-7.0098 -6.17432,-7.0098z" fill="#cc00ff" stroke-width="0" stroke-linecap="round"/><path d="M232.79238,181.15116c0,-3.94614 3.19898,-7.14512 7.14512,-7.14512c3.94614,0 7.14512,3.19898 7.14512,7.14512c0,3.94614 -3.19898,7.14512 -7.14512,7.14512c-3.94614,0 -7.14512,-3.19898 -7.14512,-7.14512z" fill-opacity="0.50196" fill="#ffffff" stroke-width="0.5" stroke-linecap="butt"/><path d="M234.13376,181.15116c0,-3.27435 2.65438,-5.92873 5.92873,-5.92873c3.27435,0 5.92873,2.65438 5.92873,5.92873c0,3.27435 -2.65438,5.92873 -5.92873,5.92873c-3.27435,0 -5.92873,-2.65438 -5.92873,-5.92873z" fill-opacity="0.70196" fill="#ffffff" stroke-width="0.5" stroke-linecap="butt"/><path d="M235.50925,181.08866c0,-2.48017 2.01058,-4.49074 4.49074,-4.49074c2.48017,0 4.49074,2.01058 4.49074,4.49074c0,2.48017 -2.01058,4.49074 -4.49074,4.49074c-2.48017,0 -4.49074,-2.01058 -4.49074,-4.49074z" fill-opacity="0.90196" fill="#ffffff" stroke-width="0.5" stroke-linecap="butt"/><path d="M236.26743,181.08866c0,-2.06144 1.67113,-3.73257 3.73257,-3.73257c2.06144,0 3.73257,1.67113 3.73257,3.73257c0,2.06144 -1.67113,3.73257 -3.73257,3.73257c-2.06144,0 -3.73257,-1.67113 -3.73257,-3.73257z" fill="#ffffff" stroke-width="0.5" stroke-linecap="butt"/></g></g></svg>