<svg version="1.1" xmlns="http://www.w3.org/2000/svg" xmlns:xlink="http://www.w3.org/1999/xlink" width="11.59892" height="8.5" viewBox="0,0,11.59892,8.5"><defs><linearGradient x1="236.5156" y1="180.0625" x2="244.9844" y2="180.0625" gradientUnits="userSpaceOnUse" id="color-1"><stop offset="0" stop-color="#cc00ff" stop-opacity="0"/><stop offset="1" stop-color="#cc00ff" stop-opacity="0.8"/></linearGradient></defs><g transform="translate(-235.13548,-175.8125)"><g data-paper-data="{&quot;isPaintingLayer&quot;:true}" fill-rule="nonzero" stroke-linecap="butt" stroke-linejoin="miter" stroke-miterlimit="10" stroke-dasharray="" stroke-dashoffset="0" style="mix-blend-mode: normal"><path d="M236.5156,177.57312c0.12179,-0.00702 0.24517,-0.01062 0.36988,-0.01062c2.20168,0 8.09892,1.01403 8.09892,2.39473c0,1.38071 -5.89723,2.60527 -8.09892,2.60527c-0.06025,0 -0.12017,-0.00084 -0.17974,-0.0025" fill="none" stroke="url(#color-1)" stroke-width="3.5"/><path d="M236.5156,177.57312c0.12179,-0.00702 0.24517,-0.01062 0.36988,-0.01062c2.20168,0 8.09892,1.01403 8.09892,2.39474c0,1.38071 -5.89723,2.60526 -8.09892,2.60526c-0.06025,0 -0.12017,-0.00084 -0.17976,-0.0025" fill="none" stroke="#ffffff" stroke-width="0.5"/><path d="M236.83334,180.04271c0,-0.84568 1.83829,-1.48021 2.94861,-1.48021c1.11032,0 3.08264,0.63452 3.08264,1.48021c0,0.84568 -1.97232,1.58229 -3.08264,1.58229c-1.11032,0 -2.94861,-0.73661 -2.94861,-1.58229z" fill="#ffffff" stroke="none" stroke-width="0.5"/></g></g></svg>