<svg version="1.1" xmlns="http://www.w3.org/2000/svg" xmlns:xlink="http://www.w3.org/1999/xlink" width="220.49909" height="21.27454" viewBox="0,0,220.49909,21.27454"><g transform="translate(-129.75055,-169.36273)"><g data-paper-data="{&quot;isPaintingLayer&quot;:true}" fill-rule="nonzero" stroke-linecap="butt" stroke-linejoin="miter" stroke-miterlimit="10" stroke-dasharray="" stroke-dashoffset="0" style="mix-blend-mode: normal"><path d="M130.50045,180.06637c0,-5.80577 49.02482,-10.51227 109.49955,-10.51227c60.47491,0 109.49973,4.70652 109.49973,10.51227c0,5.80577 -49.02482,10.51227 -109.49973,10.51227c-60.47491,0 -109.49955,-4.70652 -109.49955,-10.51227z" fill-opacity="0.8549" fill="#cc00ff" stroke="none" stroke-width="0.5"/><path d="M130.50055,180.06637c0,-4.97925 49.02466,-9.01574 109.49965,-9.01574c60.47478,0 109.49944,4.03649 109.49944,9.01574c0,4.97925 -49.02466,9.01574 -109.49944,9.01574c-60.47478,0 -109.49965,-4.03649 -109.49965,-9.01574z" fill="none" stroke-opacity="0.50196" stroke="#cc00ff" stroke-width="1.5"/><path d="M130.50055,180c0,-5.44987 49.02472,-9.86785 109.49964,-9.86785c60.47472,0 109.49945,4.41798 109.49945,9.86785c0,5.44987 -49.02453,9.86785 -109.49945,9.86785c-60.47472,0 -109.49964,-4.41798 -109.49964,-9.86785z" fill="none" stroke-opacity="0.50196" stroke="#cc00ff" stroke-width="0.75"/><path d="M130.50055,180c0,-5.65007 49.02455,-10.23034 109.49955,-10.23034c60.475,0 109.49955,4.58027 109.49955,10.23034c0,5.65007 -49.02455,10.23034 -109.49955,10.23034c-60.475,0 -109.49955,-4.58027 -109.49955,-10.23034z" fill="none" stroke-opacity="0.70196" stroke="#cc00ff" stroke-width="0.5"/><path d="M130.50055,180c0,-5.80577 49.02482,-10.51227 109.49955,-10.51227c60.47491,0 109.49955,4.70652 109.49955,10.51227c0,5.80577 -49.02482,10.51227 -109.49955,10.51227c-60.47491,0 -109.49955,-4.70652 -109.49955,-10.51227z" fill="none" stroke="#cc00ff" stroke-width="0.25"/></g></g></svg>