<svg version="1.1" xmlns="http://www.w3.org/2000/svg" xmlns:xlink="http://www.w3.org/1999/xlink" width="716.74085" height="628.81789" viewBox="0,0,716.74085,628.81789"><defs><radialGradient cx="240.01495" cy="179.59005" r="162.52007" gradientUnits="userSpaceOnUse" id="color-1"><stop offset="0" stop-color="#000000"/><stop offset="1" stop-color="#8e8e8e"/></radialGradient></defs><g transform="translate(118.33047,144.08398)"><g data-paper-data="{&quot;isPaintingLayer&quot;:true}" fill-rule="nonzero" stroke-linecap="butt" stroke-linejoin="miter" stroke-miterlimit="10" stroke-dasharray="" stroke-dashoffset="0" style="mix-blend-mode: normal"><path d="M-118.33047,48.074v-95h258l-10.62314,60.09539z" fill="#cc6219" stroke="none" stroke-width="0"/><path d="M-49.31846,385.08001c0,0 0,-62.4298 0,-86.01496c0,-16.4778 0,-41.98504 0,-41.98504h132.57272c0,0 1.81783,14.96316 1.78451,32.58459c-0.03476,18.3854 -1.82804,39.66457 2.82661,49.86178c4.24852,9.30747 33.97745,-1.74723 44.21983,6.10179c14.42245,11.05232 9.59632,39.45184 9.59632,39.45184z" fill="#47cc4e" stroke="none" stroke-width="0"/><path d="M16.66753,175.0448l75.23653,-246.74421l135.76746,29.80261c0,0 -115.96023,32.60172 -141.64103,61.54603c-20.72704,23.36103 -0.79174,98.98708 -0.79174,98.98708c0,0 2.65886,56.15599 -3.6887,61.37765c-12.29056,10.11054 -64.88252,-4.96916 -64.88252,-4.96916z" fill="#4789cc" stroke="none" stroke-width="0"/><path d="M-69.15343,313.86314l-37.52719,-163.75503l191.2069,-59.69133l0.37258,167.07032z" fill="#cd48ab" stroke="none" stroke-width="0"/><path d="M6.57718,181.10393l-53.11829,-141.34867l137.60434,-51.71118c0,0 -5.77694,16.15695 -6.69018,29.21872c-1.53279,21.92291 -1.65399,90.12487 -1.65399,90.12487z" fill="#6f0000" stroke="none" stroke-width="0"/><path d="M120.47465,-88.06616l216.87013,-36.82026l22.21049,144.47398l-238.06134,-5.24747z" fill="#8f0000" stroke="none" stroke-width="0"/><path d="M337.35945,-18.40104l107.03472,-42.05436l89.22838,227.09975l-107.03472,42.05436c0,0 -20.36455,-66.11374 -31.40004,-122.74353c-1.00096,-5.13653 0.8402,-10.88637 -0.03514,-15.79793c-3.98325,-22.35014 4.74044,-41.07486 0.25698,-52.48596c-3.54426,-9.02068 -27.95352,2.97787 -35.2499,-2.16661c-17.75788,-12.52058 -22.80027,-33.90572 -22.80027,-33.90572z" fill="#8f0060" stroke="none" stroke-width="0"/><path d="M498.81184,404.42948l-92.84105,80.30443l-88.72892,-118.68721c0,0 37.7487,-13.86862 47.4616,-22.26995c4.86875,-4.21131 23.15397,4.00232 28.9647,-3.22864c14.44327,-17.97343 16.41475,-54.80584 16.41475,-54.80584z" fill="#00198f" stroke="none" stroke-width="0"/><path d="M325.41736,439.16138l-215.1389,-40.40893l17.5377,-55.34709l237.14399,-1.32484z" fill="#8f4545" stroke="none" stroke-width="0"/><path d="M396.2803,220.60406l0.82525,-133.52998l72.49601,67.30353l-59.75411,158.08367z" fill="#005a20" stroke="#000000" stroke-width="0"/><path d="M394.50587,327.04591l2.02794,-153.75299l140.88723,-43.15779l38.89488,149.66071z" fill="#5c008f" stroke="none" stroke-width="0"/><path d="M504.13084,84.38223c0,0 -75.63022,-48.53786 -110.4414,-66.44114c-29.01614,-14.92291 -84.22367,-33.67448 -84.22367,-33.67448l66.0103,-128.35059l194.66508,100.11562z" fill="#8f4545" stroke="none" stroke-width="0"/><path d="M327.56262,419.65904c0,0 13.48606,-52.44194 33.04885,-74.95169c10.77913,-12.4029 31.12545,6.48327 33.91167,-3.98907c3.88726,-14.61074 1.52102,-42.95125 1.0996,-71.94702c-0.69092,-47.53804 -1.61349,-97.61719 -1.61349,-97.61719l148.71896,33.87461l-56.2818,211.54193z" fill="#8f0000" stroke="none" stroke-width="0"/><path d="M598.41038,377.81644l-92.84105,80.30443l-88.72892,-118.68721l92.84105,-80.30443z" fill="#00198f" stroke="none" stroke-width="0"/><path d="M85.32801,342.11013v-325.04014h309.3739v325.04014z" fill="none" stroke="url(#color-1)" stroke-width="5.5"/></g></g></svg>