<svg version="1.1" xmlns="http://www.w3.org/2000/svg" xmlns:xlink="http://www.w3.org/1999/xlink" width="12.57142" height="12.57142" viewBox="0,0,12.57142,12.57142"><g transform="translate(-233.7143,-173.7143)"><g data-paper-data="{&quot;isPaintingLayer&quot;:true}" fill-rule="nonzero" stroke-linecap="butt" stroke-linejoin="miter" stroke-miterlimit="10" stroke-dasharray="" stroke-dashoffset="0" style="mix-blend-mode: normal"><path d="M234.7143,180.00001c0,-2.91922 2.36649,-5.28571 5.28571,-5.28571c2.91922,0 5.28571,2.36649 5.28571,5.28571c0,2.91922 -2.36649,5.28571 -5.28571,5.28571c-2.91922,0 -5.28571,-2.36649 -5.28571,-5.28571z" fill="none" stroke-opacity="0.2" stroke="#cc00ff" stroke-width="2"/><path d="M234.7143,180.00001c0,-2.91922 2.36649,-5.28571 5.28571,-5.28571c2.91922,0 5.28571,2.36649 5.28571,5.28571c0,2.91922 -2.36649,5.28571 -5.28571,5.28571c-2.91922,0 -5.28571,-2.36649 -5.28571,-5.28571z" fill="none" stroke-opacity="0.50196" stroke="#cc00ff" stroke-width="1.5"/><path d="M234.7143,180.00001c0,-2.91922 2.36649,-5.28571 5.28571,-5.28571c2.91922,0 5.28571,2.36649 5.28571,5.28571c0,2.91922 -2.36649,5.28571 -5.28571,5.28571c-2.91922,0 -5.28571,-2.36649 -5.28571,-5.28571z" fill="#ffffff" stroke="#cc00ff" stroke-width="0.5"/><path d="M234.7143,180.00001c0,-2.91922 2.36649,-5.28571 5.28571,-5.28571c2.91922,0 5.28571,2.36649 5.28571,5.28571c0,2.91922 -2.36649,5.28571 -5.28571,5.28571c-2.91922,0 -5.28571,-2.36649 -5.28571,-5.28571z" fill="none" stroke-opacity="0.70196" stroke="#cc00ff" stroke-width="1"/></g></g></svg>