<svg version="1.1" xmlns="http://www.w3.org/2000/svg" xmlns:xlink="http://www.w3.org/1999/xlink" width="11.85746" height="11.85746" viewBox="0,0,11.85746,11.85746"><g transform="translate(-234.13376,-175.22243)"><g data-paper-data="{&quot;isPaintingLayer&quot;:true}" fill-rule="nonzero" stroke="none" stroke-width="0.5" stroke-linecap="butt" stroke-linejoin="miter" stroke-miterlimit="10" stroke-dasharray="" stroke-dashoffset="0" style="mix-blend-mode: normal"><path d="M234.13376,181.15116c0,-3.27435 2.65438,-5.92873 5.92873,-5.92873c3.27435,0 5.92873,2.65438 5.92873,5.92873c0,3.27435 -2.65438,5.92873 -5.92873,5.92873c-3.27435,0 -5.92873,-2.65438 -5.92873,-5.92873z" fill-opacity="0.70196" fill="#ffffff"/><path d="M235.50925,181.08866c0,-2.48017 2.01058,-4.49074 4.49074,-4.49074c2.48017,0 4.49074,2.01058 4.49074,4.49074c0,2.48017 -2.01058,4.49074 -4.49074,4.49074c-2.48017,0 -4.49074,-2.01058 -4.49074,-4.49074z" fill-opacity="0.90196" fill="#ffffff"/><path d="M236.26743,181.08866c0,-2.06144 1.67113,-3.73257 3.73257,-3.73257c2.06144,0 3.73257,1.67113 3.73257,3.73257c0,2.06144 -1.67113,3.73257 -3.73257,3.73257c-2.06144,0 -3.73257,-1.67113 -3.73257,-3.73257z" fill="#ffffff"/></g></g></svg>