<svg version="1.1" xmlns="http://www.w3.org/2000/svg" xmlns:xlink="http://www.w3.org/1999/xlink" width="30.53333" height="30.53333" viewBox="0,0,30.53333,30.53333"><g transform="translate(-224.73333,-164.73334)"><g data-paper-data="{&quot;isPaintingLayer&quot;:true}" fill="none" fill-rule="nonzero" stroke-linecap="butt" stroke-linejoin="miter" stroke-miterlimit="10" stroke-dasharray="" stroke-dashoffset="0" style="mix-blend-mode: normal"><path d="M226.03334,180c0,-7.71358 6.25309,-13.96667 13.96667,-13.96667c7.71358,0 13.96667,6.25309 13.96667,13.96667c0,7.71358 -6.25309,13.96666 -13.96667,13.96666c-7.71358,0 -13.96667,-6.25309 -13.96667,-13.96666z" stroke="#ffffff" stroke-width="2"/><path d="M227.23334,180c0,-7.05084 5.71583,-12.76666 12.76666,-12.76666c7.05084,0 12.76666,5.71583 12.76666,12.76666c0,7.05084 -5.71583,12.76666 -12.76666,12.76666c-7.05084,0 -12.76666,-5.71583 -12.76666,-12.76666z" stroke-opacity="0.70196" stroke="#ffffff" stroke-width="5"/><path d="M228.23334,180c0,-6.49855 5.26811,-11.76666 11.76666,-11.76666c6.49855,0 11.76666,5.26811 11.76666,11.76666c0,6.49855 -5.26811,11.76666 -11.76666,11.76666c-6.49855,0 -11.76666,-5.26811 -11.76666,-11.76666z" stroke-opacity="0.30196" stroke="#ffffff" stroke-width="6.5"/><path d="M230.53334,180c0,-5.2283 4.23837,-9.46667 9.46667,-9.46667c5.2283,0 9.46667,4.23837 9.46667,9.46667c0,5.2283 -4.23837,9.46667 -9.46667,9.46667c-5.2283,0 -9.46667,-4.23837 -9.46667,-9.46667z" stroke-opacity="0.10196" stroke="#cc00ff" stroke-width="5"/><path d="M231.1,180c0,-4.91533 3.98467,-8.9 8.9,-8.9c4.91533,0 8.9,3.98467 8.9,8.9c0,4.91533 -3.98467,8.9 -8.9,8.9c-4.91533,0 -8.9,-3.98467 -8.9,-8.9z" stroke-opacity="0.30196" stroke="#cc00ff" stroke-width="3.5"/><path d="M231.46667,180c0,-4.71283 3.8205,-8.53333 8.53333,-8.53333c4.71283,0 8.53333,3.8205 8.53333,8.53333c0,4.71283 -3.8205,8.53333 -8.53333,8.53333c-4.71283,0 -8.53333,-3.8205 -8.53333,-8.53333z" stroke-opacity="0.50196" stroke="#cc00ff" stroke-width="2.5"/><path d="M231.78788,180c0,-4.53543 3.67669,-8.21212 8.21212,-8.21212c4.53543,0 8.21212,3.67669 8.21212,8.21212c0,4.53543 -3.67669,8.21212 -8.21212,8.21212c-4.53543,0 -8.21212,-3.67669 -8.21212,-8.21212z" stroke-opacity="0.70196" stroke="#cc00ff" stroke-width="1.5"/><path d="M232.01515,180c0,-4.40991 3.57494,-7.98485 7.98485,-7.98485c4.40991,0 7.98485,3.57494 7.98485,7.98485c0,4.40991 -3.57494,7.98485 -7.98485,7.98485c-4.40991,0 -7.98485,-3.57494 -7.98485,-7.98485z" stroke="#cc00ff" stroke-width="0.5"/></g></g></svg>