<svg version="1.1" xmlns="http://www.w3.org/2000/svg" xmlns:xlink="http://www.w3.org/1999/xlink" width="28.80158" height="15.31827" viewBox="0,0,28.80158,15.31827"><g transform="translate(-225.5583,-172.36312)"><g data-paper-data="{&quot;isPaintingLayer&quot;:true}" fill="#00b0eb" fill-rule="nonzero" stroke="#d2d2d2" stroke-width="0" stroke-linecap="butt" stroke-linejoin="miter" stroke-miterlimit="10" stroke-dasharray="" stroke-dashoffset="0" style="mix-blend-mode: normal"><path d="M225.56199,180.05941c0.04603,-2.51537 0.52024,-4.92243 1.35187,-7.15293c2.57978,1.08074 5.40356,1.7006 8.37038,1.75489c3.72889,0.06823 7.26464,-0.76466 10.39937,-2.29825c2.32603,2.74636 5.29344,4.93612 8.67627,6.33489c-0.03954,0.48307 -0.06405,0.97054 -0.07305,1.46193c-0.01282,0.70108 0.0062,1.39533 0.05575,2.08137c-3.26529,1.15145 -6.19325,3.02826 -8.58642,5.44008c-2.86834,-1.38557 -6.07495,-2.18775 -9.46878,-2.24985c-3.41607,-0.06251 -6.67003,0.63125 -9.60208,1.9272c-0.7718,-2.28838 -1.17002,-4.74616 -1.12331,-7.29931z"/></g></g></svg>