<svg version="1.1" xmlns="http://www.w3.org/2000/svg" xmlns:xlink="http://www.w3.org/1999/xlink" width="8.14205" height="8.2093" viewBox="0,0,8.14205,8.2093"><g transform="translate(-235.92897,-175.89535)"><g data-paper-data="{&quot;isPaintingLayer&quot;:true}" fill-rule="nonzero" stroke-linecap="butt" stroke-linejoin="miter" stroke-miterlimit="10" stroke-dasharray="" stroke-dashoffset="0" style="mix-blend-mode: normal"><path d="" fill="#9966ff" stroke="none" stroke-width="0.5"/><path d="M240,175.96688c2.22743,0 4.03313,1.80569 4.03313,4.03312c0,2.22743 -1.8057,4.03312 -4.03313,4.03312c-2.22743,0 -4.03313,-1.80569 -4.03313,-4.03312c0,-2.22743 1.8057,-4.03312 4.03313,-4.03312z" fill="#000000" stroke="none" stroke-width="0"/><path d="M240,176.21806c2.08871,0 3.78194,1.69324 3.78194,3.78195c0,2.08871 -1.69323,3.78194 -3.78194,3.78194c-2.08871,0 -3.78194,-1.69323 -3.78194,-3.78194c0,-2.08871 1.69323,-3.78195 3.78194,-3.78195z" fill="none" stroke-opacity="0.4" stroke="#db4dff" stroke-width="0.5"/><path d="M240,176.47668c1.94588,0 3.52332,1.57745 3.52332,3.52332c0,1.94588 -1.57745,3.52332 -3.52332,3.52332c-1.94588,0 -3.52332,-1.57745 -3.52332,-3.52332c0,-1.94588 1.57745,-3.52332 3.52332,-3.52332z" fill="none" stroke-opacity="0.4" stroke="#db4dff" stroke-width="1"/><path d="M240,176.70383c1.82042,0 3.29617,1.47574 3.29617,3.29617c0,1.82042 -1.47574,3.29617 -3.29617,3.29617c-1.82042,0 -3.29617,-1.47574 -3.29617,-3.29617c0,-1.82042 1.47574,-3.29617 3.29617,-3.29617z" fill="none" stroke-opacity="0.4" stroke="#db4dff" stroke-width="1.5"/><path d="M240,176.96979c1.67354,0 3.03021,1.35667 3.03021,3.03021c0,1.67354 -1.35667,3.03021 -3.03021,3.03021c-1.67354,0 -3.03021,-1.35667 -3.03021,-3.03021c0,-1.67354 1.35667,-3.03021 3.03021,-3.03021z" fill="none" stroke-opacity="0.4" stroke="#db4dff" stroke-width="2"/><path d="M240,177.19319c1.55016,0 2.80681,1.25665 2.80681,2.80681c0,1.55016 -1.25665,2.80681 -2.80681,2.80681c-1.55016,0 -2.80681,-1.25665 -2.80681,-2.80681c0,-1.55016 1.25665,-2.80681 2.80681,-2.80681z" fill="none" stroke-opacity="0.4" stroke="#db4dff" stroke-width="2.5"/><path d="M240,177.43788c1.41502,0 2.56212,1.1471 2.56212,2.56212c0,1.41502 -1.1471,2.56212 -2.56212,2.56212c-1.41502,0 -2.56212,-1.1471 -2.56212,-2.56212c0,-1.41502 1.1471,-2.56212 2.56212,-2.56212z" fill="none" stroke-opacity="0.4" stroke="#db4dff" stroke-width="3"/><path d="M240,177.71288c1.26314,0 2.28713,1.02398 2.28713,2.28712c0,1.26314 -1.02398,2.28713 -2.28713,2.28713c-1.26314,0 -2.28713,-1.02398 -2.28713,-2.28713c0,-1.26314 1.02398,-2.28712 2.28713,-2.28712z" fill="none" stroke-opacity="0.4" stroke="#db4dff" stroke-width="3.5"/><path d="M240,178.23788c0.97319,0 1.76213,0.78893 1.76213,1.76212c0,0.97319 -0.78893,1.76212 -1.76213,1.76212c-0.97319,0 -1.76212,-0.78893 -1.76212,-1.76212c0,-0.97319 0.78893,-1.76212 1.76212,-1.76212z" fill="none" stroke-opacity="0.4" stroke="#db4dff" stroke-width="4.5"/><g fill="#ffffff" stroke="none" stroke-width="0"><path d="M239.96788,175.8991c-0.01223,2.22604 -1.81337,4.02852 -4.03891,4.04291"/><path d="M244.05637,179.92744c-2.23244,-0.00211 -4.04365,-1.80343 -4.06176,-4.03209"/><path d="M235.93115,179.99804c2.23213,0.01561 4.0368,1.82991 4.0368,4.06572c0,0.00815 -0.00002,0.01629 -0.00007,0.02443"/><path d="M240.00913,184.04601c0,-0.00177 0,-0.00353 0,-0.00529c0,-2.24286 1.81607,-4.06155 4.05794,-4.06581"/><path d="M240.00927,175.92467c2.23244,0.00211 4.04364,1.80344 4.06176,4.03209" data-paper-data="{&quot;index&quot;:null}"/><path d="M235.92897,179.98598c0.01224,-2.22604 1.81337,-4.02852 4.03891,-4.04291" data-paper-data="{&quot;index&quot;:null}"/><path d="M244.03775,179.98957c0,0.00177 0,0.00353 0,0.00529c0,2.24286 -1.81607,4.06155 -4.05794,4.06581" data-paper-data="{&quot;index&quot;:null}"/><path d="M240.05081,184.10465c-2.24187,-0.00426 -4.05794,-1.82295 -4.05794,-4.06581c0,-0.00177 0,-0.00353 0,-0.00529" data-paper-data="{&quot;index&quot;:null}"/></g></g></g></svg>