<svg version="1.1" xmlns="http://www.w3.org/2000/svg" xmlns:xlink="http://www.w3.org/1999/xlink" width="6.71822" height="8.2764" viewBox="0,0,6.71822,8.2764"><g transform="translate(-236.64089,-175.8618)"><g data-paper-data="{&quot;isPaintingLayer&quot;:true}" fill-rule="nonzero" stroke-linecap="butt" stroke-linejoin="miter" stroke-miterlimit="10" stroke-dasharray="" stroke-dashoffset="0" style="mix-blend-mode: normal"><path d="" fill="#cc00ff" stroke="none" stroke-width="0.5"/><path d="M243.26851,184.08722c0,0 -0.10019,0.05142 -0.38353,0.05097c-1.33594,-0.0022 -5.21194,-0.00859 -5.88363,-0.00968c-0.19438,-0.00031 -0.27524,-0.0642 -0.27524,-0.0642c0,0 -0.08568,-0.03196 -0.08522,-0.20232c0.00354,-1.3039 0.01896,-6.98836 0.02097,-7.72574c0.00042,-0.15467 0.07082,-0.2294 0.07082,-0.2294c0,0 0.06461,-0.04543 0.29503,-0.04505c1.24847,0.00206 5.30774,0.00874 5.985,0.00986c0.18758,0.00031 0.30026,0.03692 0.30026,0.03692c0,0 0.04656,0.08403 0.04614,0.2387c-0.00199,0.73625 -0.01737,6.4043 -0.02095,7.71966c-0.00048,0.17415 -0.05908,0.22031 -0.05908,0.22031z" fill="#00ffff" stroke="#cc00ff" stroke-width="0"/></g></g></svg>