<svg version="1.1" xmlns="http://www.w3.org/2000/svg" xmlns:xlink="http://www.w3.org/1999/xlink" width="16.71137" height="7.15055" viewBox="0,0,16.71137,7.15055"><defs><linearGradient x1="240.18411" y1="176.76344" x2="240.18411" y2="182.97312" gradientUnits="userSpaceOnUse" id="color-1"><stop offset="0" stop-color="#ffffff"/><stop offset="1" stop-color="#ffffff" stop-opacity="0"/></linearGradient></defs><g transform="translate(-231.64431,-176.42472)"><g data-paper-data="{&quot;isPaintingLayer&quot;:true}" fill-rule="nonzero" stroke="none" stroke-width="0.5" stroke-linecap="butt" stroke-linejoin="miter" stroke-miterlimit="10" stroke-dasharray="" stroke-dashoffset="0" style="mix-blend-mode: normal"><path d="M231.64432,180.18817c0,-1.97457 3.38707,-3.76345 5.9066,-3.76345c2.51953,0 10.80477,1.60071 10.80477,3.57528c0,1.97457 -8.28523,3.57528 -10.80477,3.57528c-2.51953,0 -5.9066,-1.41253 -5.9066,-3.3871z" fill="#cc00ff"/><path d="M232.77167,180.03169c0,-1.71475 3.00473,-3.26826 5.23983,-3.26826c2.23511,0 9.58505,1.39009 9.58505,3.10485c0,1.71475 -7.34994,3.10484 -9.58505,3.10484c-2.23511,0 -5.23983,-1.22668 -5.23983,-2.94143z" fill="url(#color-1)"/></g></g></svg>