<svg version="1.1" xmlns="http://www.w3.org/2000/svg" xmlns:xlink="http://www.w3.org/1999/xlink" width="7.77837" height="9.39152" viewBox="0,0,7.77837,9.39152"><g transform="translate(-236.11082,-175.30424)"><g data-paper-data="{&quot;isPaintingLayer&quot;:true}" fill-rule="nonzero" stroke-linejoin="miter" stroke-miterlimit="10" stroke-dasharray="" stroke-dashoffset="0" style="mix-blend-mode: normal"><path d="" fill="#cc00ff" stroke="none" stroke-width="0.5" stroke-linecap="butt"/><path d="M243.79651,184.63792c0,0 -0.1282,0.05836 -0.45626,0.05783c-1.54675,-0.00249 -6.0344,-0.00974 -6.81208,-0.01099c-0.22506,-0.00036 -0.31867,-0.07285 -0.31867,-0.07285c0,0 -0.09921,-0.03629 -0.09868,-0.2296c0.0041,-1.47957 0.02196,-7.92993 0.02428,-8.76665c0.00048,-0.1755 0.08199,-0.2603 0.08199,-0.2603c0,0 0.07482,-0.05155 0.34159,-0.05112c1.44549,0.00234 6.14531,0.00992 6.92944,0.01118c0.21718,0.00034 0.34764,0.04189 0.34764,0.04189c0,0 0.05392,0.09536 0.05342,0.27087c-0.00232,0.83544 -0.02012,7.26717 -0.02426,8.75976c-0.00054,0.19763 -0.0684,0.24999 -0.0684,0.24999z" fill="#ffffff" stroke="none" stroke-width="3.5" stroke-linecap="butt"/><path d="M243.26851,184.08723c0,0 -0.10019,0.05142 -0.38353,0.05097c-1.33594,-0.0022 -5.21194,-0.00859 -5.88363,-0.00968c-0.19438,-0.00031 -0.27524,-0.0642 -0.27524,-0.0642c0,0 -0.08568,-0.03196 -0.08522,-0.20232c0.00354,-1.3039 0.01896,-6.98836 0.02097,-7.72574c0.00042,-0.15467 0.07082,-0.2294 0.07082,-0.2294c0,0 0.06461,-0.04543 0.29503,-0.04505c1.24847,0.00206 5.30774,0.00874 5.985,0.00986c0.18758,0.00031 0.30026,0.03692 0.30026,0.03692c0,0 0.04656,0.08403 0.04614,0.2387c-0.00199,0.73625 -0.01737,6.4043 -0.02095,7.71966c-0.00048,0.17415 -0.05908,0.22031 -0.05908,0.22031z" fill="none" stroke="#cc00ff" stroke-width="0.375" stroke-linecap="butt"/><path d="M237.67977,178.56865v-1.69932h4.44438v1.69932z" fill="none" stroke="#cc00ff" stroke-width="0.75" stroke-linecap="butt"/><path d="M239.84397,178.83765l0.01794,1.09596" fill="none" stroke="#cc00ff" stroke-width="1" stroke-linecap="round"/><path d="M237.8815,180.47839l4.31368,-0.08943l0.0224,0.53874" data-paper-data="{&quot;index&quot;:null}" fill="none" stroke="#cc00ff" stroke-width="1" stroke-linecap="round"/><path d="M237.60787,182.4199c0,-0.32487 0.26336,-0.58823 0.58823,-0.58823c0.32487,0 0.58823,0.26336 0.58823,0.58823c0,0.32487 -0.26336,0.58823 -0.58823,0.58823c-0.32487,0 -0.58823,-0.26336 -0.58823,-0.58823z" fill="#cc00ff" stroke="none" stroke-width="0.5" stroke-linecap="butt"/><path d="M239.75489,182.50323c0,-0.32487 0.26336,-0.58823 0.58823,-0.58823c0.32487,0 0.58823,0.26336 0.58823,0.58823c0,0.32487 -0.26336,0.58823 -0.58823,0.58823c-0.32487,0 -0.58823,-0.26336 -0.58823,-0.58823z" fill="#cc00ff" stroke="none" stroke-width="0.5" stroke-linecap="butt"/></g></g></svg>