<svg version="1.1" xmlns="http://www.w3.org/2000/svg" xmlns:xlink="http://www.w3.org/1999/xlink" width="12.17361" height="12.17361" viewBox="0,0,12.17361,12.17361"><g transform="translate(-233.91319,-173.91319)"><g data-paper-data="{&quot;isPaintingLayer&quot;:true}" fill-rule="nonzero" stroke-linecap="butt" stroke-linejoin="miter" stroke-miterlimit="10" stroke-dasharray="" stroke-dashoffset="0" style="mix-blend-mode: normal"><path d="M234.03819,180c0,-3.29261 2.6692,-5.9618 5.9618,-5.9618c3.29261,0 5.96181,2.6692 5.96181,5.9618c0,3.29261 -2.6692,5.9618 -5.96181,5.9618c-3.29261,0 -5.9618,-2.6692 -5.9618,-5.9618z" fill="#ffffff" stroke="none" stroke-width="0.5"/><path d="M234.84928,180c0,-2.84466 2.30606,-5.15072 5.15073,-5.15072c2.84466,0 5.15072,2.30606 5.15072,5.15072c0,2.84466 -2.30606,5.15072 -5.15072,5.15072c-2.84466,0 -5.15073,-2.30606 -5.15073,-5.15072z" fill="none" stroke-opacity="0.50196" stroke="#cc00ff" stroke-width="1.5"/><path d="M234.40367,180c0,-3.09077 2.50557,-5.59633 5.59634,-5.59633c3.09076,0 5.59633,2.50556 5.59633,5.59633c0,3.09077 -2.50556,5.59633 -5.59633,5.59633c-3.09076,0 -5.59634,-2.50556 -5.59634,-5.59633z" fill="none" stroke-opacity="0.50196" stroke="#cc00ff" stroke-width="0.75"/><path d="M234.19809,180c0,-3.20431 2.5976,-5.80191 5.80191,-5.80191c3.20431,0 5.80191,2.5976 5.80191,5.80191c0,3.20431 -2.5976,5.80191 -5.80191,5.80191c-3.20431,0 -5.80191,-2.5976 -5.80191,-5.80191z" fill="none" stroke-opacity="0.70196" stroke="#cc00ff" stroke-width="0.5"/><path d="M234.0382,180c0,-3.29261 2.6692,-5.9618 5.9618,-5.9618c3.29261,0 5.9618,2.6692 5.9618,5.9618c0,3.29261 -2.6692,5.9618 -5.9618,5.9618c-3.29261,0 -5.9618,-2.6692 -5.9618,-5.9618z" fill="none" stroke="#cc00ff" stroke-width="0.25"/></g></g></svg>